<?xml version="1.0" standalone="no"?>
<!DOCTYPE svg PUBLIC "-//W3C//DTD SVG 20010904//EN"
 "http://www.w3.org/TR/2001/REC-SVG-20010904/DTD/svg10.dtd">
<svg version="1.0" xmlns="http://www.w3.org/2000/svg"
 width="248.000000pt" height="248.000000pt" viewBox="0 0 248.000000 248.000000"
 preserveAspectRatio="xMidYMid meet">
<metadata>
Created by potrace 1.14, written by Peter Selinger 2001-2017
</metadata>
<g transform="translate(0.000000,248.000000) scale(0.100000,-0.100000)"
fill="#000000" stroke="none">
<path d="M0 1235 l0 -1235 1240 0 1240 0 0 1235 0 1235 -1240 0 -1240 0 0
-1235z m1535 250 l40 -34 0 -75 c0 -64 -3 -78 -23 -99 -41 -44 -166 -62 -210
-31 -38 26 -45 59 -26 123 24 86 43 118 77 135 53 26 97 20 142 -19z m-629
-22 c31 -35 45 -60 50 -89 11 -75 -37 -134 -109 -134 -56 0 -100 25 -125 69
-27 48 -27 74 1 131 17 34 31 48 57 57 62 21 79 16 126 -34z m664 -318 c6 -8
9 -24 5 -37 -12 -41 -73 -123 -107 -142 -18 -11 -61 -45 -95 -78 -61 -58 -62
-58 -123 -58 -87 0 -198 27 -226 55 -13 13 -46 36 -75 51 -72 39 -146 134
-133 168 12 31 43 15 117 -59 82 -83 147 -119 245 -137 75 -14 106 -6 152 40
21 20 54 50 74 65 19 15 54 54 76 87 42 61 66 74 90 45z"/>
</g>
</svg>
